# xmcd
#
# Track frame offsets: 
#        150
#        9922
#        21931
#        32373
#        46104
#        59314
#        69371
#        80232
#        91172
#        105569
#        115076
#        126038
#        139776
#        150994
#        166927
#        178570
#        187689
#        202008
#        218181
#        230684
#        242467
#        252301
#
# Disc length: 3608 seconds
#
# Revision: 0
# Processed by: cddbd v1.5.2PL0 Copyright (c) Steve Scherf et al.
# Submitted via: ExactAudioCopyFreeDBPlugin 1.0
#
DISCID=130e1616
DTITLE=Charley Pride - The Best Of Charley Pride Vols. I, II and III - G
DTITLE=reatest Hits
DYEAR=2018
DGENRE=Country
TTITLE0=I Don't Deserve A Mansion
TTITLE1=My Eyes Can Only See As Far As You
TTITLE2=The Happiness Of Having You
TTITLE3=Hope You're Feelin' Me (Like I'm Feelin' You)
TTITLE4=I Ain't All Bad
TTITLE5=Then Who Am I
TTITLE6=Mississippi Cotton Picking Delta Town
TTITLE7=Searching For The Morning Sun
TTITLE8=Amazing Love
TTITLE9=Don't Fight The Feelings Of Love
TTITLE10=Oklahoma Morning
TTITLE11=Never Been So Loved (In All My Life)
TTITLE12=Missin' You
TTITLE13=You're My Jamaica
TTITLE14=When I Stop Leaving (I'll Be Gone)
TTITLE15=Honky Tonk Blues
TTITLE16=Burgers And Fries
TTITLE17=Roll On Mississippi
TTITLE18=A Whole Lotta Things To Sing About
TTITLE19=She's Just An Old Love Turned Memory
TTITLE20=Someone Loves You Honey
TTITLE21=Where Do I Put Her Memory
EXTD=
EXTT0=
EXTT1=
EXTT2=
EXTT3=
EXTT4=
EXTT5=
EXTT6=
EXTT7=
EXTT8=
EXTT9=
EXTT10=
EXTT11=
EXTT12=
EXTT13=
EXTT14=
EXTT15=
EXTT16=
EXTT17=
EXTT18=
EXTT19=
EXTT20=
EXTT21=
PLAYORDER=
